HIERARCHY
ROOT Hips
{
  OFFSET 90.7885 88.945 -76.2838
  CHANNELS 6 Xposition Yposition Zposition Zrotation Xrotation Yrotation
  JOINT LeftUpLeg
  {
    OFFSET 8.64259 1.95398 -2.38835
    CHANNELS 3 Zrotation Xrotation Yrotation
    JOINT LeftLeg
    {
      OFFSET 43.7702 0 0
      CHANNELS 3 Zrotation Xrotation Yrotation
      JOINT LeftFoot
      {
        OFFSET 40.6238 0 0
        CHANNELS 3 Zrotation Xrotation Yrotation
        JOINT LeftToeBase
        {
          OFFSET 12.7242 0 0
          CHANNELS 3 Zrotation Xrotation Yrotation
          End Site
          {
            OFFSET 0 0 0
          }
        }
      }
    }
  }
  JOINT RightUpLeg
  {
    OFFSET -8.2249 1.95398 -2.59336
    CHANNELS 3 Zrotation Xrotation Yrotation
    JOINT RightLeg
    {
      OFFSET 43.5653 0 0
      CHANNELS 3 Zrotation Xrotation Yrotation
      JOINT RightFoot
      {
        OFFSET 40.6238 0 0
        CHANNELS 3 Zrotation Xrotation Yrotation
        JOINT RightToeBase
        {
          OFFSET 12.7242 0 0
          CHANNELS 3 Zrotation Xrotation Yrotation
          End Site
          {
            OFFSET 0 0 0
          }
        }
      }
    }
  }
  JOINT Spine
  {
    OFFSET 0.165834 0.87714 6.61349
    CHANNELS 3 Zrotation Xrotation Yrotation
    JOINT Spine1
    {
      OFFSET 7.38963 1.71661e-005 0
      CHANNELS 3 Zrotation Xrotation Yrotation
      JOINT Spine2
      {
        OFFSET 11.9445 1.14441e-005 0
        CHANNELS 3 Zrotation Xrotation Yrotation
        JOINT Spine3
        {
          OFFSET 14.7254 4.19617e-005 0
          CHANNELS 3 Zrotation Xrotation Yrotation
          JOINT Spine4
          {
            OFFSET 10.9679 0 0
            CHANNELS 3 Zrotation Xrotation Yrotation
            JOINT RightShoulder
            {
              OFFSET 2.46616 -1.6653 3.69651
              CHANNELS 3 Zrotation Xrotation Yrotation
              JOINT RightArm
              {
                OFFSET 13.0012 0 0
                CHANNELS 3 Zrotation Xrotation Yrotation
                JOINT RightForeArm
                {
                  OFFSET 28.7848 1.52588e-005 0
                  CHANNELS 3 Zrotation Xrotation Yrotation
                  JOINT RightHand
                  {
                    OFFSET 26.5688 1.52588e-005 0
                    CHANNELS 3 Zrotation Xrotation Yrotation
                    End Site
                    {
                      OFFSET 0 0 0
                    }
                  }
                }
              }
            }
            JOINT LeftShoulder
            {
              OFFSET 2.38034 -1.29275 -3.7523
              CHANNELS 3 Zrotation Xrotation Yrotation
              JOINT LeftArm
              {
                OFFSET 16.3182 6.10352e-005 0
                CHANNELS 3 Zrotation Xrotation Yrotation
                JOINT LeftForeArm
                {
                  OFFSET 27.0901 0 0
                  CHANNELS 3 Zrotation Xrotation Yrotation
                  JOINT LeftHand
                  {
                    OFFSET 24.5451 1.52588e-005 0
                    CHANNELS 3 Zrotation Xrotation Yrotation
                    End Site
                    {
                      OFFSET 0 0 0
                    }
                  }
                }
              }
            }
            JOINT Neck
            {
              OFFSET 5.0226 -0.0266342 0
              CHANNELS 3 Zrotation Xrotation Yrotation
              JOINT Head
              {
                OFFSET 6.69363 2.86102e-005 0
                CHANNELS 3 Zrotation Xrotation Yrotation
                End Site
                {
                  OFFSET 0 0 0
                }
              }
            }
          }
        }
      }
    }
  }
}
MOTION
Frames:	9
Frame Time:	0.0416667
-234.128 95.9383 -201.58 97.6797 -33.8487 96.0388 -173.971 13.6203 96.5572 -66.1893 10.4102 4.58806 64.0341 2.93568 5.03105 20.3972 6.69383 -6.87908 172.428 5.27086 94.1966 -29.5378 -4.94256 1.52963 76.8237 -7.21049 -3.21492 12.7899 -2.7567 7.48768 0.0294184 8.42176 -90.5343 10.0292 -0.184427 -1.04596 -1.64215 -0.230294 -1.03684 -24.1738 0.138412 -1.05304 -4.16117 0.138423 -1.05304 89.0293 -31.1063 -108.231 38.6156 -10.8529 -0.12927 3.18921 -22.2197 -16.4444 -20.7573 -0.431915 -8.98354 -90.4732 -54.3929 78.9583 -17.7928 17.8228 -12.7169 4.94555 3.12831 -13.9911 -3.2213 -0.0594542 -8.30433 14.6572 -4.39433 -3.20148 -1.26945 -3.41045 0.308022 
-229.874 96.5241 -197.679 97.2681 -36.1829 93.4443 -174.923 20.4811 91.7525 -58.2384 6.09812 1.97242 65.7365 3.888 5.31737 22.9293 6.52776 -7.50851 171.705 0.641198 91.7607 -26.9809 -8.9114 0.353151 77.5063 -7.26675 -4.32945 13.5509 -2.62707 7.22933 0.580335 8.3644 -90.1466 10.148 1.08958 -0.383459 -1.52256 1.07167 -0.431053 -24.0614 1.15446 -0.0382265 -4.04873 1.15445 -0.0382292 89.1164 -29.9049 -108.544 36.128 -11.96 -4.35059 2.04068 -21.1674 -18.4766 -21.9948 -0.156036 -10.154 -89.5471 -54.7115 80.3389 -18.0501 15.1683 -7.75482 5.34362 -0.279198 -16.2081 -1.12715 -0.121978 -7.24213 11.0863 -4.87598 -2.29072 0.0157573 -4.2249 -0.881115 
-225.46 96.674 -193.834 97.0804 -39.1417 92.3108 -176.173 23.4415 89.0824 -41.7799 3.89612 -0.414763 62.887 2.83931 4.94906 26.3593 3.00832 -3.78881 171.25 -3.31181 90.356 -24.6066 -14.1853 -0.613771 76.1648 -7.01876 -6.84533 17.649 -2.71679 7.17131 1.02114 8.4443 -89.9342 9.98681 2.06507 -0.039187 -1.6825 2.06134 -0.130086 -24.2301 1.98133 0.583509 -4.21744 1.98132 0.583502 88.836 -28.6948 -109.61 31.5939 -13.4061 -9.80312 1.47083 -23.8381 -20.5224 -26.1347 -0.410311 -8.87796 -89.6356 -56.7534 80.595 -16.0529 14.0099 -3.90654 5.37102 -1.88394 -18.4959 -1.70202 -0.109619 -7.63327 10.0347 -4.66611 -0.364087 -0.121832 -4.49707 -1.93855 
-220.674 95.8107 -189.719 96.7352 -41.7464 91.8506 -178.447 22.7952 88.2344 -19.6222 2.34819 -1.35529 60.7382 2.22152 2.64282 24.0469 2.44306 -2.49261 170.555 -8.88425 88.8727 -21.1839 -15.5438 -1.27911 79.5734 -9.18187 -6.41046 18.5009 -3.09216 7.82983 1.28332 8.45625 -89.79 9.96081 2.65311 0.199479 -1.70743 2.65932 0.0824315 -24.262 2.47043 0.988105 -4.24932 2.47043 0.988112 88.3966 -28.1068 -110.754 26.699 -13.5342 -15.4846 -0.0120049 -25.0573 -20.7224 -27.6034 -0.62597 -8.04494 -89.4831 -58.1157 81.0519 -15.3307 13.4517 -0.206866 4.89429 -3.47745 -18.3888 -2.09189 -0.0996059 -7.97645 9.90898 -4.2084 1.22984 -0.315589 -4.41742 -2.7058 
-215.55 94.2667 -185.147 97.0148 -44.7526 92.486 -179.748 22.8706 88.7311 -7.24714 0.948579 -2.26468 61.7899 2.39325 2.281 23.5091 -0.845479 2.02899 169.538 -13.4875 87.4016 -21.0494 -18.9298 -1.73187 80.2171 -10.0997 -7.13304 21.4046 -2.93023 7.37527 1.5645 8.47156 -89.74 9.92943 3.23629 0.252428 -1.73748 3.24427 0.109585 -24.3014 3.01067 1.21426 -4.28877 3.01069 1.21426 87.836 -28.0093 -111.926 23.1139 -12.1471 -19.6766 -1.02567 -25.3319 -22.3878 -27.7973 -0.484125 -8.83701 -89.5024 -59.5438 81.2759 -15.4328 13.7744 2.31829 3.88072 -5.44668 -15.6955 -2.73051 -0.0801654 -7.81391 9.90335 -3.69821 2.60645 -0.239168 -4.23612 -3.05341 
-209.633 92.8999 -179.857 99.0454 -48.0272 94.2351 -178.422 21.9936 88.7053 -8.63271 0.533399 -2.77194 54.7523 -0.392062 -0.0610438 22.2653 0.147542 0.930636 166.691 -19.0638 83.4586 -20.5966 -23.3813 -2.00201 78.3607 -9.79254 -6.63835 28.5991 -3.73953 8.84373 1.82007 8.56497 -89.6789 9.74061 3.77343 0.339623 -1.92489 3.78473 0.172969 -24.4988 3.4967 1.45934 -4.48612 3.4967 1.45934 87.7122 -27.6789 -112.333 22.6236 -10.1442 -22.6413 -3.48081 -27.3773 -22.9581 -26.5183 -0.239414 -10.9811 -89.4338 -61.7415 81.7399 -14.9336 14.3746 3.49606 3.16663 -5.97032 -11.2997 -3.4345 -0.0481645 -8.9422 10.8951 -3.17086 3.31879 -0.381999 -3.90689 -3.25925 
-203.116 92.5125 -174.059 99.271 -50.815 92.6311 -177.529 24.6874 86.2977 -21.1684 5.89519 -2.83997 56.2022 -0.845614 0.238268 12.9935 -0.960436 3.44689 164.237 -20.3904 78.423 -23.9203 -26.7737 -3.89459 72.3395 -6.96419 -6.66808 37.9351 -4.64221 11.3229 1.97511 8.50077 -89.2893 9.85532 4.25891 1.06762 -1.80894 4.30177 0.878813 -24.3862 3.74098 2.29972 -4.37355 3.74098 2.29972 87.5342 -28.1198 -112.48 25.0491 -10.3734 -22.9627 -5.05636 -24.3016 -23.8507 -25.8858 -0.214287 -10.3573 -89.2514 -62.1183 82.0429 -15.2385 13.6043 3.88467 3.67967 -3.24023 -7.57183 -2.91475 -0.086756 -5.16731 12.7654 -3.23632 1.71061 -1.95728 -3.57337 -3.64024 
-196.627 93.1263 -168.103 100.288 -51.9321 91.4855 -176.089 23.5655 83.8656 -31.5789 6.92389 -4.17799 59.4568 0.225263 2.96711 19.5569 0.364108 1.05954 164.353 -18.0885 75.6001 -34.4762 -27.3685 -7.02511 61.9705 -1.249 -3.70232 36.0906 -4.62205 11.2195 1.95104 8.44552 -88.9575 9.95064 4.36208 1.7127 -1.71386 4.43319 1.51875 -24.2839 3.64568 2.94552 -4.27131 3.64566 2.94551 87.8808 -28.4312 -111.64 28.1401 -14.0519 -21.319 -2.39639 -24.0454 -24.0157 -28.3872 0.314377 -12.2084 -89.6389 -60.5955 81.2743 -16.9054 13.3828 3.52371 3.2006 -7.66494 -4.13502 -4.40812 -0.0336284 -7.72269 12.7468 -3.43867 -0.480373 -2.33506 -3.21375 -3.21177 
-191.088 93.892 -163.19 100.469 -53.192 90.7821 -175.565 19.8507 82.5388 -34.7793 6.03165 -4.91878 65.9065 3.04835 4.22698 19.8122 0.977263 0.279761 167.661 -10.1487 74.7827 -49.7746 -27.8625 -8.05803 52.1142 3.05741 0.682676 24.5087 -3.19369 7.85161 1.74471 8.39348 -88.811 10.0495 4.01804 2.027 -1.61649 4.10332 1.84799 -24.1739 3.22327 3.14128 -4.16124 3.22326 3.14127 87.8899 -28.715 -111.49 30.185 -18.6767 -19.6006 -1.43813 -25.6857 -23.9756 -25.5181 0.102455 -12.5197 -89.5877 -59.277 81.114 -17.3359 13.0057 0.610383 3.56718 -6.50447 -3.50624 -3.033 -0.0751141 -6.48334 13.4524 -2.98717 -2.19592 -4.35043 -2.29185 -2.69586 
